<svg width="22" height="22" viewBox="0 0 22 22" fill="none" xmlns="http://www.w3.org/2000/svg">
<path d="M10.98 0C8.84635 0.00405387 6.75993 0.628493 4.97486 1.79726C3.1898 2.96602 1.78314 4.62867 0.926217 6.58268C0.0692973 8.53669 -0.200896 10.6977 0.148548 12.8026C0.497991 14.9074 1.45199 16.8652 2.89434 18.4375C3.92449 19.5541 5.17476 20.4453 6.56637 21.0548C7.95798 21.6644 9.46076 21.979 10.98 21.979C12.4992 21.979 14.002 21.6644 15.3936 21.0548C16.7852 20.4453 18.0355 19.5541 19.0657 18.4375C20.508 16.8652 21.462 14.9074 21.8115 12.8026C22.1609 10.6977 21.8907 8.53669 21.0338 6.58268C20.1769 4.62867 18.7702 2.96602 16.9851 1.79726C15.2001 0.628493 13.1136 0.00405387 10.98 0ZM10.98 19.8016C8.70113 19.7981 6.51244 18.9108 4.8745 17.3264C5.37179 16.1158 6.21775 15.0804 7.30488 14.3516C8.39201 13.6229 9.67123 13.2339 10.98 13.2339C12.2888 13.2339 13.568 13.6229 14.6551 14.3516C15.7423 15.0804 16.5882 16.1158 17.0855 17.3264C15.4476 18.9108 13.2589 19.7981 10.98 19.8016ZM8.77982 8.80072C8.77982 8.36556 8.90886 7.94018 9.15062 7.57836C9.39238 7.21655 9.736 6.93454 10.138 6.76802C10.5401 6.60149 10.9824 6.55792 11.4092 6.64281C11.836 6.72771 12.2281 6.93725 12.5358 7.24496C12.8435 7.55266 13.053 7.94469 13.1379 8.37148C13.2228 8.79828 13.1792 9.24066 13.0127 9.64269C12.8462 10.0447 12.5642 10.3883 12.2024 10.6301C11.8405 10.8719 11.4152 11.0009 10.98 11.0009C10.3965 11.0009 9.83685 10.7691 9.42424 10.3565C9.01163 9.94386 8.77982 9.38424 8.77982 8.80072ZM18.5816 15.4013C17.5987 13.7201 16.086 12.4123 14.2803 11.683C14.8404 11.0478 15.2054 10.2646 15.3314 9.42715C15.4574 8.58974 15.3391 7.73375 14.9907 6.96191C14.6422 6.19007 14.0785 5.53517 13.3671 5.07578C12.6557 4.61639 11.8268 4.37203 10.98 4.37203C10.1332 4.37203 9.30431 4.61639 8.59291 5.07578C7.8815 5.53517 7.31777 6.19007 6.96935 6.96191C6.62093 7.73375 6.50262 8.58974 6.62863 9.42715C6.75464 10.2646 7.1196 11.0478 7.67973 11.683C5.87404 12.4123 4.36128 13.7201 3.37838 15.4013C2.59506 14.067 2.18118 12.5481 2.17928 11.0009C2.17928 8.6668 3.1065 6.4283 4.75695 4.77785C6.40741 3.12739 8.6459 2.20018 10.98 2.20018C13.3141 2.20018 15.5526 3.12739 17.203 4.77785C18.8535 6.4283 19.7807 8.6668 19.7807 11.0009C19.7788 12.5481 19.3649 14.067 18.5816 15.4013Z" fill="#111111"/>
</svg>
