<svg width="22" height="22" viewBox="0 0 22 22" fill="none" xmlns="http://www.w3.org/2000/svg">
<path fill-rule="evenodd" clip-rule="evenodd" d="M22 14.1429C22 13.5174 21.7517 12.9179 21.3094 12.4764C21.0906 12.2573 20.8308 12.0836 20.5449 11.9651C20.2589 11.8466 19.9524 11.7856 19.6429 11.7857H14.1429C13.5174 11.7857 12.9179 12.034 12.4764 12.4764C12.2573 12.6951 12.0836 12.9549 11.9651 13.2408C11.8466 13.5268 11.7856 13.8333 11.7857 14.1429V19.6429C11.7857 20.2683 12.034 20.8678 12.4764 21.3094C12.6951 21.5284 12.9549 21.7021 13.2408 21.8206C13.5268 21.9392 13.8333 22.0001 14.1429 22H19.6429C20.2683 22 20.8678 21.7517 21.3094 21.3094C21.5284 21.0906 21.7021 20.8308 21.8206 20.5449C21.9392 20.2589 22.0001 19.9524 22 19.6429V14.1429ZM10.2143 14.1429C10.2143 13.5174 9.966 12.9179 9.52364 12.4764C9.30492 12.2573 9.04514 12.0836 8.75917 11.9651C8.47321 11.8466 8.16669 11.7856 7.85714 11.7857H2.35714C1.73171 11.7857 1.13221 12.034 0.690643 12.4764C0.471607 12.6951 0.297862 12.9549 0.179352 13.2408C0.0608419 13.5268 -0.000104945 13.8333 1.35648e-07 14.1429V19.6429C1.35648e-07 20.2683 0.248286 20.8678 0.690643 21.3094C0.90937 21.5284 1.16915 21.7021 1.45511 21.8206C1.74107 21.9392 2.0476 22.0001 2.35714 22H7.85714C8.48257 22 9.08207 21.7517 9.52364 21.3094C9.74268 21.0906 9.91642 20.8308 10.0349 20.5449C10.1534 20.2589 10.2144 19.9524 10.2143 19.6429V14.1429ZM20.4286 14.1429V19.6429C20.4289 19.7461 20.4088 19.8484 20.3694 19.9439C20.33 20.0394 20.2722 20.1261 20.1991 20.1991C20.1261 20.2722 20.0394 20.33 19.9439 20.3694C19.8484 20.4088 19.7461 20.4289 19.6429 20.4286H14.1429C14.0396 20.4289 13.9373 20.4088 13.8418 20.3694C13.7463 20.33 13.6596 20.2722 13.5866 20.1991C13.5136 20.1261 13.4557 20.0394 13.4163 19.9439C13.3769 19.8484 13.3568 19.7461 13.3571 19.6429V14.1429C13.3568 14.0396 13.3769 13.9373 13.4163 13.8418C13.4557 13.7463 13.5136 13.6596 13.5866 13.5866C13.6596 13.5136 13.7463 13.4557 13.8418 13.4163C13.9373 13.3769 14.0396 13.3568 14.1429 13.3571H19.6429C19.7461 13.3568 19.8484 13.3769 19.9439 13.4163C20.0394 13.4557 20.1261 13.5136 20.1991 13.5866C20.2722 13.6596 20.33 13.7463 20.3694 13.8418C20.4088 13.9373 20.4289 14.0396 20.4286 14.1429ZM8.64286 14.1429V19.6429C8.64317 19.7461 8.62306 19.8484 8.58368 19.9439C8.54431 20.0394 8.48644 20.1261 8.41342 20.1991C8.3404 20.2722 8.25366 20.33 8.15819 20.3694C8.06272 20.4088 7.96041 20.4289 7.85714 20.4286H2.35714C2.25387 20.4289 2.15156 20.4088 2.0561 20.3694C1.96063 20.33 1.87389 20.2722 1.80087 20.1991C1.72784 20.1261 1.66998 20.0394 1.6306 19.9439C1.59123 19.8484 1.57112 19.7461 1.57143 19.6429V14.1429C1.57112 14.0396 1.59123 13.9373 1.6306 13.8418C1.66998 13.7463 1.72784 13.6596 1.80087 13.5866C1.87389 13.5136 1.96063 13.4557 2.0561 13.4163C2.15156 13.3769 2.25387 13.3568 2.35714 13.3571H7.85714C7.96041 13.3568 8.06272 13.3769 8.15819 13.4163C8.25366 13.4557 8.3404 13.5136 8.41342 13.5866C8.48644 13.6596 8.54431 13.7463 8.58368 13.8418C8.62306 13.9373 8.64317 14.0396 8.64286 14.1429ZM10.2143 2.35714C10.2143 1.73171 9.966 1.13221 9.52364 0.690643C9.30492 0.471607 9.04514 0.297862 8.75917 0.179352C8.47321 0.0608419 8.16669 -0.000104945 7.85714 1.35648e-07H2.35714C1.73171 1.35648e-07 1.13221 0.248286 0.690643 0.690643C0.471607 0.90937 0.297862 1.16915 0.179352 1.45511C0.0608419 1.74107 -0.000104945 2.0476 1.35648e-07 2.35714V7.85714C1.35648e-07 8.48257 0.248286 9.08207 0.690643 9.52364C0.90937 9.74268 1.16915 9.91642 1.45511 10.0349C1.74107 10.1534 2.0476 10.2144 2.35714 10.2143H7.85714C8.48257 10.2143 9.08207 9.966 9.52364 9.52364C9.74268 9.30492 9.91642 9.04514 10.0349 8.75917C10.1534 8.47321 10.2144 8.16669 10.2143 7.85714V2.35714ZM22 2.35714C22 1.73171 21.7517 1.13221 21.3094 0.690643C21.0906 0.471607 20.8308 0.297862 20.5449 0.179352C20.2589 0.0608419 19.9524 -0.000104945 19.6429 1.35648e-07H14.1429C13.5174 1.35648e-07 12.9179 0.248286 12.4764 0.690643C12.2573 0.90937 12.0836 1.16915 11.9651 1.45511C11.8466 1.74107 11.7856 2.0476 11.7857 2.35714V7.85714C11.7857 8.48257 12.034 9.08207 12.4764 9.52364C12.6951 9.74268 12.9549 9.91642 13.2408 10.0349C13.5268 10.1534 13.8333 10.2144 14.1429 10.2143H19.6429C20.2683 10.2143 20.8678 9.966 21.3094 9.52364C21.5284 9.30492 21.7021 9.04514 21.8206 8.75917C21.9392 8.47321 22.0001 8.16669 22 7.85714V2.35714ZM8.64286 2.35714V7.85714C8.64317 7.96041 8.62306 8.06272 8.58368 8.15819C8.54431 8.25366 8.48644 8.3404 8.41342 8.41342C8.3404 8.48644 8.25366 8.54431 8.15819 8.58368C8.06272 8.62306 7.96041 8.64317 7.85714 8.64286H2.35714C2.25387 8.64317 2.15156 8.62306 2.0561 8.58368C1.96063 8.54431 1.87389 8.48644 1.80087 8.41342C1.72784 8.3404 1.66998 8.25366 1.6306 8.15819C1.59123 8.06272 1.57112 7.96041 1.57143 7.85714V2.35714C1.57112 2.25387 1.59123 2.15156 1.6306 2.0561C1.66998 1.96063 1.72784 1.87389 1.80087 1.80087C1.87389 1.72784 1.96063 1.66998 2.0561 1.6306C2.15156 1.59123 2.25387 1.57112 2.35714 1.57143H7.85714C7.96041 1.57112 8.06272 1.59123 8.15819 1.6306C8.25366 1.66998 8.3404 1.72784 8.41342 1.80087C8.48644 1.87389 8.54431 1.96063 8.58368 2.0561C8.62306 2.15156 8.64317 2.25387 8.64286 2.35714ZM20.4286 2.35714V7.85714C20.4289 7.96041 20.4088 8.06272 20.3694 8.15819C20.33 8.25366 20.2722 8.3404 20.1991 8.41342C20.1261 8.48644 20.0394 8.54431 19.9439 8.58368C19.8484 8.62306 19.7461 8.64317 19.6429 8.64286H14.1429C14.0396 8.64317 13.9373 8.62306 13.8418 8.58368C13.7463 8.54431 13.6596 8.48644 13.5866 8.41342C13.5136 8.3404 13.4557 8.25366 13.4163 8.15819C13.3769 8.06272 13.3568 7.96041 13.3571 7.85714V2.35714C13.3568 2.25387 13.3769 2.15156 13.4163 2.0561C13.4557 1.96063 13.5136 1.87389 13.5866 1.80087C13.6596 1.72784 13.7463 1.66998 13.8418 1.6306C13.9373 1.59123 14.0396 1.57112 14.1429 1.57143H19.6429C19.7461 1.57112 19.8484 1.59123 19.9439 1.6306C20.0394 1.66998 20.1261 1.72784 20.1991 1.80087C20.2722 1.87389 20.33 1.96063 20.3694 2.0561C20.4088 2.15156 20.4289 2.25387 20.4286 2.35714Z" fill="white"/>
</svg>
