<svg width="20" height="20" viewBox="0 0 20 20" fill="none" xmlns="http://www.w3.org/2000/svg">
<path d="M12.581 10.5287L10.8327 9.51949V5.83366C10.8327 5.61265 10.7449 5.40068 10.5886 5.2444C10.4323 5.08812 10.2204 5.00033 9.99935 5.00033C9.77834 5.00033 9.56638 5.08812 9.4101 5.2444C9.25382 5.40068 9.16602 5.61265 9.16602 5.83366V10.0003C9.16602 10.1466 9.20453 10.2903 9.27767 10.417C9.35081 10.5437 9.45601 10.6489 9.58269 10.722L11.7477 11.972C11.8425 12.0276 11.9474 12.0639 12.0562 12.0787C12.1651 12.0936 12.2759 12.0868 12.3821 12.0587C12.4884 12.0307 12.588 11.9818 12.6753 11.9151C12.7626 11.8483 12.8359 11.7649 12.8908 11.6698C12.9458 11.5746 12.9814 11.4695 12.9955 11.3605C13.0097 11.2515 13.0022 11.1408 12.9734 11.0347C12.9446 10.9287 12.8951 10.8294 12.8277 10.7425C12.7604 10.6557 12.6766 10.583 12.581 10.5287ZM9.99935 1.66699C8.35118 1.66699 6.74001 2.15573 5.3696 3.07141C3.99919 3.98709 2.93109 5.28858 2.30036 6.8113C1.66963 8.33401 1.5046 10.0096 1.82614 11.6261C2.14769 13.2426 2.94136 14.7274 4.1068 15.8929C5.27223 17.0583 6.75709 17.852 8.3736 18.1735C9.99011 18.4951 11.6657 18.3301 13.1884 17.6993C14.7111 17.0686 16.0126 16.0005 16.9283 14.6301C17.8439 13.2597 18.3327 11.6485 18.3327 10.0003C18.3303 7.79093 17.4515 5.67273 15.8892 4.11045C14.327 2.54817 12.2087 1.66942 9.99935 1.66699ZM9.99935 16.667C8.68081 16.667 7.39188 16.276 6.29555 15.5435C5.19922 14.8109 4.34474 13.7697 3.84016 12.5515C3.33557 11.3334 3.20355 9.99293 3.46078 8.69972C3.71802 7.40652 4.35296 6.21863 5.28531 5.28628C6.21766 4.35393 7.40554 3.71899 8.69875 3.46176C9.99196 3.20452 11.3324 3.33654 12.5506 3.84113C13.7687 4.34571 14.8099 5.2002 15.5425 6.29652C16.275 7.39285 16.666 8.68178 16.666 10.0003C16.6638 11.7678 15.9607 13.4622 14.711 14.7119C13.4612 15.9617 11.7668 16.6648 9.99935 16.667Z" fill="black"/>
</svg>
