<svg width="33" height="33" viewBox="0 0 33 33" fill="none" xmlns="http://www.w3.org/2000/svg">
<g id="Iconly/Curved/Close Square">
<g id="Close Square">
<path id="Stroke 3" fill-rule="evenodd" clip-rule="evenodd" d="M3.83154 16.1789C3.83154 25.4384 6.91893 28.5258 16.1784 28.5258C25.4379 28.5258 28.5253 25.4384 28.5253 16.1789C28.5253 6.91942 25.4379 3.83203 16.1784 3.83203C6.91893 3.83203 3.83154 6.91942 3.83154 16.1789Z" stroke="#505050" stroke-width="2.0022" stroke-linecap="round" stroke-linejoin="round"/>
</g>
<path id="Vector" d="M19.7335 12.5674V15.0018C19.7335 15.1138 19.6385 15.2047 19.5215 15.2047H12.7399C12.623 15.2047 12.528 15.1138 12.528 15.0018V12.5674C12.528 12.4554 12.623 12.3645 12.7399 12.3645H19.5215C19.6385 12.3645 19.7335 12.4554 19.7335 12.5674ZM23.5481 10.9444V22.305C23.5481 23.536 22.5029 24.5366 21.2169 24.5366H11.0445C9.75859 24.5366 8.71338 23.536 8.71338 22.305V10.9444C8.71338 9.71343 9.75859 8.71289 11.0445 8.71289H21.2169C22.5029 8.71289 23.5481 9.71343 23.5481 10.9444ZM17.6142 20.6821C17.6142 20.3461 17.3294 20.0735 16.9784 20.0735H11.8922C11.5413 20.0735 11.2565 20.3461 11.2565 20.6821C11.2565 21.018 11.5413 21.2907 11.8922 21.2907H16.9784C17.3294 21.2907 17.6142 21.018 17.6142 20.6821ZM21.005 18.2477C21.005 17.9117 20.7202 17.6391 20.3692 17.6391H11.8922C11.5413 17.6391 11.2565 17.9117 11.2565 18.2477C11.2565 18.5836 11.5413 18.8563 11.8922 18.8563H20.3692C20.7202 18.8563 21.005 18.5836 21.005 18.2477ZM21.005 12.5674C21.005 11.7843 20.3396 11.1473 19.5215 11.1473H12.7399C11.9219 11.1473 11.2565 11.7843 11.2565 12.5674V15.0018C11.2565 15.7849 11.9219 16.4219 12.7399 16.4219H19.5215C20.3396 16.4219 21.005 15.7849 21.005 15.0018V12.5674Z" fill="#505050"/>
</g>
</svg>
