<svg width="21" height="19" viewBox="0 0 21 19" fill="none" xmlns="http://www.w3.org/2000/svg">
<path fill-rule="evenodd" clip-rule="evenodd" d="M1.63725 7.26751C0.70098 7.4769 0 8.31373 0 9.31303C0 10.4706 0.939776 11.4097 2.09664 11.4097C3.2542 11.4097 4.19328 10.4706 4.19328 9.31303C4.19328 8.4937 3.72199 7.78362 3.03641 7.43908C3.87115 4.09384 6.90336 1.61345 10.5112 1.61345C14.1155 1.61345 17.145 4.08964 17.9839 7.42928C17.2871 7.76961 16.8067 8.486 16.8067 9.31303C16.8067 10.1387 17.285 10.8529 17.979 11.1954C17.9762 11.2066 17.9727 11.2185 17.9699 11.2297C17.1688 14.3235 14.4839 16.6639 11.2115 16.9594V14.9104C11.2115 14.5238 10.8978 14.2101 10.5112 14.2101C10.1246 14.2101 9.81092 14.5238 9.81092 14.9104V17.7045C9.81092 18.091 10.1246 18.4048 10.5112 18.4048C10.5602 18.4048 10.605 18.4055 10.6555 18.4048C14.8284 18.3403 18.3228 15.4517 19.3256 11.5812C19.3452 11.5063 19.3634 11.4307 19.381 11.355C20.3081 11.1387 21 10.306 21 9.31303C21 8.32213 20.3109 7.4909 19.3866 7.27311C18.4622 3.2325 14.8375 0.212891 10.5112 0.212891C6.18697 0.212891 2.56373 3.2297 1.63725 7.26751ZM2.09664 8.61765C2.48109 8.61765 2.79272 8.92928 2.79272 9.31303C2.79272 9.69748 2.48109 10.0091 2.09664 10.0091C1.71289 10.0091 1.40056 9.69748 1.40056 9.31303C1.40056 8.92928 1.71289 8.61765 2.09664 8.61765ZM18.8655 10.0084C19.2962 10.0084 19.5994 9.69748 19.5994 9.31303C19.5994 8.92928 19.2878 8.61765 18.9034 8.61765C18.5196 8.61765 18.2073 8.92928 18.2073 9.31303C18.2073 9.67367 18.5049 10.0084 18.8655 10.0084Z" fill="#111111"/>
<path fill-rule="evenodd" clip-rule="evenodd" d="M8.14197 13.5919C6.63217 12.7557 5.60906 11.1465 5.60906 9.30057C5.60906 6.59469 7.80583 4.39861 10.511 4.39861C13.2162 4.39861 15.413 6.59469 15.413 9.30057C15.413 11.1465 14.3899 12.7557 12.8801 13.5919C12.5418 13.7796 12.4193 14.206 12.6063 14.5436C12.7939 14.8818 13.2204 15.0043 13.5586 14.8174C15.4991 13.7424 16.8135 11.6738 16.8135 9.30057C16.8135 5.82158 13.9893 2.99805 10.511 2.99805C7.03273 2.99805 4.2085 5.82158 4.2085 9.30057C4.2085 11.6738 5.52292 13.7424 7.4634 14.8174C7.80163 15.0043 8.2281 14.8818 8.41578 14.5436C8.60275 14.206 8.4802 13.7796 8.14197 13.5919Z" fill="#111111"/>
<path fill-rule="evenodd" clip-rule="evenodd" d="M12.0847 10.7051C11.6995 11.1337 11.1421 11.4033 10.5216 11.4033C9.89628 11.4033 9.33465 11.1288 8.9495 10.6946C8.6932 10.4054 8.24992 10.3788 7.9607 10.6351C7.67149 10.8921 7.64488 11.3346 7.90118 11.6239C8.54334 12.3473 9.47961 12.8038 10.5216 12.8038C11.5552 12.8038 12.4852 12.355 13.126 11.6414C13.3844 11.3543 13.3606 10.911 13.0734 10.6526C12.7856 10.3942 12.3431 10.418 12.0847 10.7051Z" fill="#111111"/>
</svg>
