<svg width="42" height="35" viewBox="0 0 42 35" fill="none" xmlns="http://www.w3.org/2000/svg">
<path d="M19.0907 34.2583L9.4459 11.793H0L19.0907 34.2583Z" fill="#28C1CA"/>
<path d="M30.6501 10.3153L23.7757 0H18.2201L11.3457 10.3153H30.6501Z" fill="#28C1CA"/>
<path d="M30.9441 11.793H11.0503L20.9972 34.973L30.9441 11.793Z" fill="#28C1CA"/>
<path d="M32.554 11.793L22.9092 34.2583L41.9999 11.793H32.554Z" fill="#28C1CA"/>
<path d="M9.57981 10.3153L16.4542 0H8.24619C8.13366 0.000270468 8.0227 0.02631 7.9218 0.0761209C7.8209 0.125932 7.73275 0.198191 7.66411 0.287356L0.0307617 10.3153H9.57981ZM32.4209 10.3153H41.9994L34.3366 0.287356C34.268 0.198191 34.1798 0.125932 34.0789 0.0761209C33.978 0.02631 33.8671 0.000270468 33.7545 0H25.5465L32.4209 10.3153Z" fill="#28C1CA"/>
</svg>