<svg width="64" height="22" viewBox="0 0 64 22" fill="none" xmlns="http://www.w3.org/2000/svg">
<path d="M0 12.9706C0 5.80713 5.80713 0 12.9706 0H64V9.02941C64 16.1929 58.1929 22 51.0294 22H0V12.9706Z" fill="#FEFFB8"/>
<path d="M15.1136 15.7168H13.2885L13.3 14.3695H15.1136C15.5665 14.3695 15.9484 14.2678 16.2594 14.0644C16.5703 13.8571 16.8044 13.5558 16.9618 13.1604C17.123 12.7651 17.2036 12.2872 17.2036 11.7268V11.318C17.2036 10.8881 17.1575 10.5101 17.0654 10.1838C16.9771 9.85754 16.8447 9.5831 16.6681 9.36047C16.4916 9.13785 16.2747 8.97088 16.0175 8.85957C15.7604 8.74441 15.4648 8.68684 15.1309 8.68684H13.2539V7.33382H15.1309C15.6913 7.33382 16.2037 7.42978 16.6681 7.62169C17.1364 7.80977 17.5414 8.08038 17.883 8.43351C18.2246 8.78664 18.4875 9.20886 18.6718 9.70017C18.8598 10.1876 18.9539 10.7308 18.9539 11.3296V11.7268C18.9539 12.3218 18.8598 12.8649 18.6718 13.3562C18.4875 13.8475 18.2246 14.2697 17.883 14.6229C17.5452 14.9722 17.1403 15.2428 16.6681 15.4347C16.1999 15.6228 15.6817 15.7168 15.1136 15.7168ZM14.2672 7.33382V15.7168H12.54V7.33382H14.2672ZM21.8557 9.48714V15.7168H20.1918V9.48714H21.8557ZM20.0881 7.86351C20.0881 7.62169 20.1726 7.4221 20.3415 7.26473C20.5103 7.10735 20.7368 7.02867 21.0208 7.02867C21.301 7.02867 21.5256 7.10735 21.6945 7.26473C21.8672 7.4221 21.9536 7.62169 21.9536 7.86351C21.9536 8.10533 21.8672 8.30492 21.6945 8.46229C21.5256 8.61967 21.301 8.69835 21.0208 8.69835C20.7368 8.69835 20.5103 8.61967 20.3415 8.46229C20.1726 8.30492 20.0881 8.10533 20.0881 7.86351ZM24.8842 10.7768V15.7168H23.2202V9.48714H24.7805L24.8842 10.7768ZM24.6539 12.3832H24.1932C24.1932 11.9494 24.2451 11.5503 24.3487 11.1856C24.4562 10.8171 24.6116 10.4985 24.8151 10.2299C25.0223 9.95734 25.2776 9.74623 25.5808 9.59653C25.884 9.44683 26.2353 9.37199 26.6344 9.37199C26.9108 9.37199 27.1641 9.41421 27.3944 9.49865C27.6247 9.57926 27.8224 9.70784 27.9875 9.88441C28.1564 10.0571 28.2869 10.2836 28.379 10.5638C28.4711 10.8402 28.5172 11.1722 28.5172 11.5599V15.7168H26.859V11.7441C26.859 11.4601 26.8206 11.2413 26.7438 11.0877C26.6671 10.9342 26.5577 10.8267 26.4157 10.7653C26.2775 10.7039 26.1105 10.6732 25.9148 10.6732C25.6998 10.6732 25.5117 10.7173 25.3505 10.8056C25.1931 10.8939 25.0626 11.0167 24.959 11.1741C24.8554 11.3276 24.7786 11.508 24.7287 11.7153C24.6788 11.9226 24.6539 12.1452 24.6539 12.3832ZM28.3617 12.1932L27.7687 12.268C27.7687 11.8612 27.8186 11.4831 27.9184 11.1338C28.022 10.7845 28.1736 10.4774 28.3732 10.2126C28.5767 9.94774 28.8281 9.74239 29.1275 9.59653C29.4269 9.44683 29.7723 9.37199 30.1638 9.37199C30.4632 9.37199 30.7357 9.41613 30.9814 9.50441C31.227 9.58885 31.4362 9.72512 31.609 9.9132C31.7855 10.0974 31.9199 10.3393 32.012 10.6386C32.1079 10.938 32.1559 11.3046 32.1559 11.7383V15.7168H30.492V11.7383C30.492 11.4505 30.4536 11.2317 30.3768 11.082C30.3039 10.9284 30.1964 10.8229 30.0544 10.7653C29.9162 10.7039 29.7512 10.6732 29.5593 10.6732C29.3597 10.6732 29.185 10.7135 29.0353 10.7941C28.8856 10.8709 28.7609 10.9783 28.6611 11.1165C28.5613 11.2547 28.4865 11.4159 28.4366 11.6002C28.3867 11.7806 28.3617 11.9782 28.3617 12.1932ZM35.1902 9.48714V15.7168H33.5262V9.48714H35.1902ZM33.4226 7.86351C33.4226 7.62169 33.507 7.4221 33.6759 7.26473C33.8448 7.10735 34.0713 7.02867 34.3553 7.02867C34.6355 7.02867 34.8601 7.10735 35.0289 7.26473C35.2017 7.4221 35.288 7.62169 35.288 7.86351C35.288 8.10533 35.2017 8.30492 35.0289 8.46229C34.8601 8.61967 34.6355 8.69835 34.3553 8.69835C34.0713 8.69835 33.8448 8.61967 33.6759 8.46229C33.507 8.30492 33.4226 8.10533 33.4226 7.86351ZM38.3107 6.87321V15.7168H36.6468V6.87321H38.3107ZM41.4313 9.48714V15.7168H39.7674V9.48714H41.4313ZM39.6638 7.86351C39.6638 7.62169 39.7482 7.4221 39.9171 7.26473C40.086 7.10735 40.3124 7.02867 40.5965 7.02867C40.8767 7.02867 41.1012 7.10735 41.2701 7.26473C41.4428 7.4221 41.5292 7.62169 41.5292 7.86351C41.5292 8.10533 41.4428 8.30492 41.2701 8.46229C41.1012 8.61967 40.8767 8.69835 40.5965 8.69835C40.3124 8.69835 40.086 8.61967 39.9171 8.46229C39.7482 8.30492 39.6638 8.10533 39.6638 7.86351ZM44.4598 6.86746V15.7168H42.8016V6.86746H44.4598ZM48.3864 9.48714L45.6804 12.5732L44.2295 14.0414L43.6249 12.8438L44.7765 11.3814L46.3943 9.48714H48.3864ZM46.6649 15.7168L44.8225 12.838L45.9683 11.8362L48.5764 15.7168H46.6649ZM50.8507 9.48714V15.7168H49.1867V9.48714H50.8507ZM49.0831 7.86351C49.0831 7.62169 49.1675 7.4221 49.3364 7.26473C49.5053 7.10735 49.7318 7.02867 50.0158 7.02867C50.296 7.02867 50.5206 7.10735 50.6895 7.26473C50.8622 7.4221 50.9485 7.62169 50.9485 7.86351C50.9485 8.10533 50.8622 8.30492 50.6895 8.46229C50.5206 8.61967 50.296 8.69835 50.0158 8.69835C49.7318 8.69835 49.5053 8.61967 49.3364 8.46229C49.1675 8.30492 49.0831 8.10533 49.0831 7.86351Z" fill="#CAA628"/>
</svg>
