<svg width="21" height="18" viewBox="0 0 21 18" fill="none" xmlns="http://www.w3.org/2000/svg">
  <path d="M2.17437 6.99513L8.56214 13.7663L5.48617 6.99513H2.17437ZM10.5 14.8558L14.0784 6.99513H6.92162L10.5 14.8558ZM5.51693 5.69181L7.60859 1.78184H4.92224L1.9693 5.69181H5.51692H5.51693ZM12.4379 13.7663L18.8256 6.99513H15.5138L12.4379 13.7663ZM7.00364 5.69181H13.9964L11.9047 1.78184H9.09531L7.00364 5.69181ZM15.4831 5.69181H19.0307L16.0778 1.78184H13.3914L15.4831 5.69181ZM16.9288 0.743258L20.866 5.95654C20.9617 6.07874 21.0062 6.21959 20.9993 6.3791C20.9925 6.53862 20.9344 6.67608 20.825 6.79148L10.9819 17.2181C10.8589 17.3538 10.6982 17.4217 10.5 17.4217C10.3018 17.4217 10.1411 17.3538 10.0181 17.2181L0.174988 6.79149C0.0656211 6.67609 0.00751953 6.53862 0.000683594 6.3791C-0.00615234 6.21959 0.0382812 6.07874 0.133984 5.95654L4.07123 0.74327C4.19426 0.566767 4.36857 0.478516 4.59414 0.478516H16.4059C16.6314 0.478516 16.8057 0.566756 16.9288 0.743258Z" fill="#FFFFFF"/>
</svg>