<svg width="21" height="22" viewBox="0 0 21 22" fill="none" xmlns="http://www.w3.org/2000/svg">
<path d="M10.5 0.212891C4.66667 0.212891 0 4.87956 0 10.7129C0 12.8129 0.7 14.9129 1.86667 16.6629L0.233333 19.4629C5.21541e-08 19.8129 5.21541e-08 20.2796 0.233333 20.6296C0.466667 20.9796 0.7 21.2129 1.16667 21.2129H10.5C16.3333 21.2129 21 16.5462 21 10.7129C21 4.87956 16.3333 0.212891 10.5 0.212891ZM10.5 18.8796H3.26667L4.31667 17.1296C4.55 16.6629 4.55 16.1962 4.2 15.8462C3.03333 14.4462 2.33333 12.5796 2.33333 10.7129C2.33333 6.16289 5.95 2.54622 10.5 2.54622C15.05 2.54622 18.6667 6.16289 18.6667 10.7129C18.6667 15.2629 15.05 18.8796 10.5 18.8796Z" fill="black"/>
<path d="M10.6167 5.23047H10.5001C9.3334 5.23047 8.2834 5.8138 7.70006 6.74714C7.2334 7.33047 7.35006 8.03047 7.9334 8.38047C8.51673 8.73047 9.21673 8.6138 9.56673 8.03047C9.80006 7.68047 10.1501 7.5638 10.5001 7.5638H10.6167C11.2001 7.5638 11.6667 8.03047 11.6667 8.6138C11.6667 9.08047 11.3167 9.54714 10.9667 9.6638L10.1501 9.89714C9.6834 10.0138 9.3334 10.4805 9.3334 10.9471V11.8805C9.3334 12.5805 9.80006 13.0471 10.5001 13.0471C11.0834 13.0471 11.6667 12.5805 11.6667 11.9971C13.0667 11.5305 14.0001 10.2471 14.0001 8.73047C14.0001 6.8638 12.4834 5.23047 10.6167 5.23047Z" fill="black"/>
<path d="M10.5002 16.5462C11.1445 16.5462 11.6668 16.0239 11.6668 15.3796C11.6668 14.7352 11.1445 14.2129 10.5002 14.2129C9.85583 14.2129 9.3335 14.7352 9.3335 15.3796C9.3335 16.0239 9.85583 16.5462 10.5002 16.5462Z" fill="black"/>
</svg>
