<svg width="17" height="17" viewBox="0 0 17 17" fill="none" xmlns="http://www.w3.org/2000/svg">
<g clip-path="url(#clip0_2924_3919)">
<path d="M16.2309 8.50664C16.2309 7.95262 16.186 7.39562 16.0902 6.85059H8.40283V9.989H12.805C12.6223 11.0012 12.0354 11.8966 11.1759 12.4656V14.502H13.8022C15.3445 13.0825 16.2309 10.9862 16.2309 8.50664Z" fill="#4285F4"/>
<path d="M8.40267 16.4691C10.6008 16.4691 12.4545 15.7474 13.8051 14.5016L11.1787 12.4653C10.448 12.9624 9.50471 13.2439 8.40567 13.2439C6.27945 13.2439 4.47666 11.8094 3.82981 9.88086H1.11963V11.9801C2.50317 14.7322 5.32115 16.4691 8.40267 16.4691V16.4691Z" fill="#34A853"/>
<path d="M3.82707 9.88182C3.48568 8.86962 3.48568 7.77357 3.82707 6.76137V4.66211H1.11989C-0.0360562 6.96501 -0.0360562 9.67818 1.11989 11.9811L3.82707 9.88182V9.88182Z" fill="#FBBC04"/>
<path d="M8.40267 3.39476C9.5646 3.37679 10.6876 3.81401 11.5291 4.61658L13.856 2.28972C12.3826 0.906184 10.4271 0.145537 8.40267 0.169495C5.32115 0.169495 2.50317 1.9064 1.11963 4.6615L3.82681 6.76077C4.47067 4.8292 6.27645 3.39476 8.40267 3.39476V3.39476Z" fill="#EA4335"/>
</g>
<defs>
<clipPath id="clip0_2924_3919">
<rect width="16.3" height="16.3" fill="white" transform="translate(0.0898438 0.168945)"/>
</clipPath>
</defs>
</svg>
