<svg width="21" height="21" viewBox="0 0 21 21" fill="none" xmlns="http://www.w3.org/2000/svg">
<path fill-rule="evenodd" clip-rule="evenodd" d="M8.68438 1.58465C9.24191 1.05505 9.98152 0.759766 10.7505 0.759766C11.5195 0.759766 12.2592 1.0551 12.8168 1.58477L19.1937 7.6417C19.6854 8.1088 20.077 8.67111 20.3445 9.2943C20.612 9.91748 20.75 10.5886 20.75 11.2668V17.9998C20.75 18.7954 20.4339 19.5585 19.8713 20.1211C19.3087 20.6837 18.5457 20.9998 17.75 20.9998H3.75C2.95435 20.9998 2.19129 20.6837 1.62868 20.1211C1.06607 19.5585 0.75 18.7954 0.75 17.9998V11.2668C0.749999 10.5886 0.887965 9.91748 1.15551 9.2943C1.42304 8.67111 1.81457 8.10887 2.30625 7.64177L8.68438 1.58465C8.68442 1.58461 8.68433 1.58469 8.68438 1.58465ZM8.75 18.9998H12.75V13.9998C12.75 13.7346 12.6446 13.4802 12.4571 13.2927C12.2696 13.1051 12.0152 12.9998 11.75 12.9998H9.75C9.48478 12.9998 9.23043 13.1051 9.04289 13.2927C8.85536 13.4802 8.75 13.7346 8.75 13.9998V18.9998ZM14.75 18.9998V13.9998C14.75 13.2041 14.4339 12.4411 13.8713 11.8784C13.3087 11.3158 12.5457 10.9998 11.75 10.9998H9.75C8.95435 10.9998 8.19129 11.3158 7.62868 11.8784C7.06607 12.4411 6.75 13.2041 6.75 13.9998V18.9998H3.75C3.48478 18.9998 3.23043 18.8944 3.04289 18.7069C2.85536 18.5193 2.75 18.265 2.75 17.9998V11.2668C2.75 10.8599 2.83278 10.4572 2.9933 10.0833C3.1538 9.70943 3.38867 9.37212 3.68362 9.09189C3.68358 9.09193 3.68367 9.09185 3.68362 9.09189L10.0616 3.03489C10.2475 2.85833 10.4942 2.75977 10.7505 2.75977C11.0068 2.75977 11.2534 2.85821 11.4392 3.03477L17.8162 9.09177C17.8162 9.09174 17.8163 9.09179 17.8162 9.09177C18.1112 9.37201 18.3462 9.7094 18.5067 10.0833C18.6672 10.4572 18.75 10.8599 18.75 11.2668V17.9998C18.75 18.265 18.6446 18.5193 18.4571 18.7069C18.2696 18.8944 18.0152 18.9998 17.75 18.9998H14.75Z" fill="white"/>
</svg>
