<svg width="15" height="20" viewBox="0 0 15 20" fill="none" xmlns="http://www.w3.org/2000/svg">
<path fill-rule="evenodd" clip-rule="evenodd" d="M2.75 15.9999V3.99995L5.79689 2.68713V17.3127L2.75 15.9999ZM0.75 3.19056C0.75 2.57439 1.20096 2.05125 1.8102 1.96032L5.75 0.499946C6.50169 0.38768 7.75 0.483674 7.75 1.24367V18.7557C7.75 19.5157 7.00169 19.612 6.25 19.4997L1.8102 18.0391C1.20096 17.9482 0.75 17.425 0.75 16.8089V3.19056ZM9.75 18.4332L10.2842 18.5951C11.0359 18.7073 11.75 18.125 11.75 17.365V2.17125C11.75 1.41125 11.0017 0.887599 10.25 0.999718L9.75 1.10308V18.4332ZM12.75 17.4873L13.711 17.6679C14.75 17.6679 14.75 16.9997 14.75 16.3756V3.49972C14.75 2.99972 14.75 2.33161 13.711 2.33161L12.75 2.47506V17.4873Z" fill="white"/>
</svg>
