<svg width="32" height="32" viewBox="0 0 32 32" fill="none" xmlns="http://www.w3.org/2000/svg">
<path d="M4.8 25.6073H11.584C11.7946 25.6085 12.0033 25.5682 12.1982 25.4886C12.3932 25.4089 12.5705 25.2916 12.72 25.1433L23.792 14.0553L28.336 9.60732C28.486 9.45858 28.605 9.28162 28.6862 9.08665C28.7675 8.89167 28.8093 8.68254 28.8093 8.47132C28.8093 8.26011 28.7675 8.05098 28.6862 7.856C28.605 7.66103 28.486 7.48407 28.336 7.33532L21.552 0.471324C21.4033 0.321359 21.2263 0.202328 21.0313 0.121098C20.8363 0.0398681 20.6272 -0.00195312 20.416 -0.00195312C20.2048 -0.00195312 19.9957 0.0398681 19.8007 0.121098C19.6057 0.202328 19.4287 0.321359 19.28 0.471324L14.768 4.99932L3.664 16.0873C3.51571 16.2368 3.39839 16.4141 3.31877 16.6091C3.23914 16.804 3.19878 17.0128 3.2 17.2233V24.0073C3.2 24.4317 3.36857 24.8386 3.66863 25.1387C3.96869 25.4388 4.37565 25.6073 4.8 25.6073ZM20.416 3.86332L24.944 8.39132L22.672 10.6633L18.144 6.13532L20.416 3.86332ZM6.4 17.8793L15.888 8.39132L20.416 12.9193L10.928 22.4073H6.4V17.8793ZM30.4 28.8073H1.6C1.17565 28.8073 0.768687 28.9759 0.468629 29.276C0.168571 29.576 0 29.983 0 30.4073C0 30.8317 0.168571 31.2386 0.468629 31.5387C0.768687 31.8388 1.17565 32.0073 1.6 32.0073H30.4C30.8243 32.0073 31.2313 31.8388 31.5314 31.5387C31.8314 31.2386 32 30.8317 32 30.4073C32 29.983 31.8314 29.576 31.5314 29.276C31.2313 28.9759 30.8243 28.8073 30.4 28.8073Z" fill="#9B9B9B"/>
</svg>
