<svg width="22" height="22" viewBox="0 0 22 22" fill="none" xmlns="http://www.w3.org/2000/svg">
<path fill-rule="evenodd" clip-rule="evenodd" d="M10.75 1.5C7.85051 1.5 5.5 3.85051 5.5 6.75V8.75C5.5 9.1642 5.16421 9.5 4.75 9.5C4.33579 9.5 4 9.1642 4 8.75V6.75C4 3.02208 7.02208 0 10.75 0C14.4779 0 17.5 3.02208 17.5 6.75V8.75C17.5 9.1642 17.1642 9.5 16.75 9.5C16.3358 9.5 16 9.1642 16 8.75V6.75C16 3.85051 13.6495 1.5 10.75 1.5Z" fill="#111111"/>
<path d="M7.75 14.75C7.75 15.3023 7.30228 15.75 6.75 15.75C6.19772 15.75 5.75 15.3023 5.75 14.75C5.75 14.1977 6.19772 13.75 6.75 13.75C7.30228 13.75 7.75 14.1977 7.75 14.75ZM11.75 14.75C11.75 15.3023 11.3023 15.75 10.75 15.75C10.1977 15.75 9.75 15.3023 9.75 14.75C9.75 14.1977 10.1977 13.75 10.75 13.75C11.3023 13.75 11.75 14.1977 11.75 14.75ZM15.75 14.75C15.75 15.3023 15.3023 15.75 14.75 15.75C14.1977 15.75 13.75 15.3023 13.75 14.75C13.75 14.1977 14.1977 13.75 14.75 13.75C15.3023 13.75 15.75 14.1977 15.75 14.75Z" fill="#111111"/>
<path fill-rule="evenodd" clip-rule="evenodd" d="M6.69513 8H14.8049C16.1725 7.99998 17.2748 7.99996 18.1418 8.11652C19.0419 8.23754 19.7997 8.49643 20.4017 9.0984C21.0036 9.7003 21.2625 10.4581 21.3835 11.3583C21.5 12.2252 21.5 13.3275 21.5 14.6951V14.8049C21.5 16.1725 21.5 17.2748 21.3835 18.1418C21.2625 19.0419 21.0036 19.7997 20.4017 20.4017C19.7997 21.0036 19.0419 21.2625 18.1418 21.3835C17.2748 21.5 16.1725 21.5 14.8049 21.5H6.69513C5.32754 21.5 4.22522 21.5 3.35825 21.3835C2.45814 21.2625 1.70027 21.0036 1.09835 20.4017C0.496431 19.7997 0.237541 19.0419 0.116521 18.1418C-3.94285e-05 17.2748 -1.94761e-05 16.1725 5.23892e-07 14.8049V14.6951C-1.94761e-05 13.3275 -3.94285e-05 12.2252 0.116521 11.3582C0.237541 10.4581 0.496431 9.7003 1.09835 9.0984C1.70027 8.49643 2.45814 8.23754 3.35825 8.11652C4.22522 7.99996 5.32754 7.99998 6.69513 8ZM3.55812 9.6031C2.82435 9.7018 2.43577 9.8822 2.15901 10.159C1.88225 10.4358 1.7018 10.8243 1.60315 11.5581C1.50159 12.3135 1.5 13.3146 1.5 14.75C1.5 16.1854 1.50159 17.1865 1.60315 17.9419C1.7018 18.6757 1.88225 19.0642 2.15901 19.341C2.43577 19.6178 2.82435 19.7982 3.55812 19.8969C4.31347 19.9984 5.31458 20 6.75 20H14.75C16.1854 20 17.1865 19.9984 17.9419 19.8969C18.6757 19.7982 19.0642 19.6178 19.341 19.341C19.6178 19.0642 19.7982 18.6757 19.8969 17.9419C19.9984 17.1865 20 16.1854 20 14.75C20 13.3146 19.9984 12.3135 19.8969 11.5581C19.7982 10.8243 19.6178 10.4358 19.341 10.159C19.0642 9.8822 18.6757 9.7018 17.9419 9.6031C17.1865 9.5016 16.1854 9.5 14.75 9.5H6.75C5.31458 9.5 4.31347 9.5016 3.55812 9.6031Z" fill="#111111"/>
</svg>
