<svg width="18" height="22" viewBox="0 0 18 22" fill="none" xmlns="http://www.w3.org/2000/svg">
<path d="M6.57952 14.9048C8.19915 14.7772 9.82623 14.7772 11.4459 14.9048C12.3278 14.9551 13.2056 15.063 14.0737 15.2278C15.9521 15.5996 17.1784 16.2064 17.704 17.1851C18.0987 17.9488 18.0987 18.8581 17.704 19.6219C17.1784 20.6005 16.0007 21.2464 14.0542 21.5792C13.1868 21.7502 12.3088 21.8614 11.4264 21.9119C10.6088 22 9.7913 22 8.96402 22H7.47493C7.16348 21.9609 6.86177 21.9413 6.56979 21.9413C5.6873 21.8969 4.80911 21.789 3.94197 21.6183C2.06357 21.266 0.837251 20.6397 0.311687 19.661C0.1088 19.2819 0.00183834 18.8584 0.000117245 18.4279C-0.00398735 17.9948 0.0997397 17.5675 0.301954 17.1851C0.817785 16.2064 2.0441 15.5703 3.94197 15.2278C4.81293 15.0606 5.69412 14.9527 6.57952 14.9048ZM9.00295 0C12.2657 0 14.9107 2.6596 14.9107 5.94039C14.9107 9.22118 12.2657 11.8808 9.00295 11.8808C5.74021 11.8808 3.09523 9.22118 3.09523 5.94039C3.09523 2.6596 5.74021 0 9.00295 0Z" fill="white"/>
</svg>
