<svg width="80" height="20" viewBox="0 0 80 20" fill="none" xmlns="http://www.w3.org/2000/svg">
<path d="M0 11.6309C0 5.55573 4.92487 0.630859 11 0.630859H80V8.63086C80 14.706 75.0751 19.6309 69 19.6309H0V11.6309Z" fill="#B8FBFF"/>
<path d="M16.181 15.7218L13.0583 8.44824H10L16.181 15.7218Z" fill="#28C1CA"/>
<path d="M19.924 7.97064L17.6983 4.63086H15.8996L13.6738 7.97064H19.924Z" fill="#28C1CA"/>
<path d="M20.0196 8.44824H13.5786L16.7991 15.9532L20.0196 8.44824Z" fill="#28C1CA"/>
<path d="M20.5397 8.44824L17.417 15.7218L23.598 8.44824H20.5397Z" fill="#28C1CA"/>
<path d="M13.1015 7.97064L15.3272 4.63086H12.6697C12.6332 4.63095 12.5973 4.63938 12.5646 4.6555C12.532 4.67163 12.5034 4.69503 12.4812 4.7239L10.0098 7.97064H13.1015ZM20.4967 7.97064H23.5979L21.1169 4.7239C21.0947 4.69503 21.0662 4.67163 21.0335 4.6555C21.0008 4.63938 20.9649 4.63095 20.9285 4.63086H18.271L20.4967 7.97064Z" fill="#28C1CA"/>
<path d="M32.0015 11.0967H30.1899V9.9541H32.0015C32.2814 9.9541 32.5093 9.90853 32.6851 9.81738C32.8608 9.72298 32.9894 9.59277 33.0708 9.42676C33.1522 9.26074 33.1929 9.07357 33.1929 8.86523C33.1929 8.65365 33.1522 8.45671 33.0708 8.27441C32.9894 8.09212 32.8608 7.94564 32.6851 7.83496C32.5093 7.72428 32.2814 7.66895 32.0015 7.66895H30.6978V13.6309H29.2329V6.52148H32.0015C32.5581 6.52148 33.035 6.6224 33.4321 6.82422C33.8325 7.02279 34.1385 7.29785 34.3501 7.64941C34.5617 8.00098 34.6675 8.40299 34.6675 8.85547C34.6675 9.31445 34.5617 9.71159 34.3501 10.0469C34.1385 10.3822 33.8325 10.641 33.4321 10.8232C33.035 11.0055 32.5581 11.0967 32.0015 11.0967ZM36.9966 9.5V13.6309H35.5903V8.34766H36.9136L36.9966 9.5ZM38.5884 8.31348L38.564 9.61719C38.4956 9.60742 38.4126 9.59928 38.3149 9.59277C38.2205 9.58301 38.1343 9.57812 38.0562 9.57812C37.8576 9.57812 37.6851 9.60417 37.5386 9.65625C37.3953 9.70508 37.2749 9.77832 37.1772 9.87598C37.0828 9.97363 37.0112 10.0924 36.9624 10.2324C36.9168 10.3724 36.8908 10.5319 36.8843 10.7109L36.6011 10.623C36.6011 10.2812 36.6353 9.96712 36.7036 9.68066C36.772 9.39095 36.8713 9.13867 37.0015 8.92383C37.1349 8.70898 37.2977 8.54297 37.4897 8.42578C37.6818 8.30859 37.9015 8.25 38.1489 8.25C38.2271 8.25 38.3068 8.25651 38.3882 8.26953C38.4696 8.2793 38.5363 8.29395 38.5884 8.31348ZM41.5864 13.7285C41.1763 13.7285 40.8084 13.6634 40.4829 13.5332C40.1574 13.3997 39.8807 13.2158 39.6528 12.9814C39.4282 12.7471 39.2557 12.4753 39.1353 12.166C39.0148 11.8535 38.9546 11.5215 38.9546 11.1699V10.9746C38.9546 10.5742 39.0116 10.208 39.1255 9.87598C39.2394 9.54395 39.4022 9.25586 39.6138 9.01172C39.8286 8.76758 40.089 8.5804 40.395 8.4502C40.701 8.31673 41.0461 8.25 41.4302 8.25C41.8045 8.25 42.1366 8.31185 42.4263 8.43555C42.716 8.55924 42.9585 8.73503 43.1538 8.96289C43.3524 9.19076 43.5021 9.46419 43.603 9.7832C43.7039 10.099 43.7544 10.4505 43.7544 10.8379V11.4238H39.5552V10.4863H42.3726V10.3789C42.3726 10.1836 42.3368 10.0094 42.2651 9.85645C42.1968 9.7002 42.0926 9.5765 41.9526 9.48535C41.8127 9.39421 41.6336 9.34863 41.4155 9.34863C41.23 9.34863 41.0705 9.38932 40.937 9.4707C40.8035 9.55208 40.6945 9.66602 40.6099 9.8125C40.5285 9.95898 40.4666 10.1315 40.4243 10.3301C40.3853 10.5254 40.3657 10.7402 40.3657 10.9746V11.1699C40.3657 11.3815 40.395 11.5768 40.4536 11.7559C40.5155 11.9349 40.6017 12.0895 40.7124 12.2197C40.8263 12.3499 40.9631 12.4508 41.1226 12.5225C41.2853 12.5941 41.4692 12.6299 41.6743 12.6299C41.9282 12.6299 42.1642 12.5811 42.3823 12.4834C42.6037 12.3825 42.7941 12.2311 42.9536 12.0293L43.6372 12.7715C43.5265 12.931 43.3752 13.084 43.1831 13.2305C42.9943 13.377 42.7664 13.4974 42.4995 13.5918C42.2326 13.6829 41.9282 13.7285 41.5864 13.7285ZM45.9614 9.44141V13.6309H44.5503V8.34766H45.8735L45.9614 9.44141ZM45.7661 10.8037H45.3755C45.3755 10.4359 45.4194 10.0973 45.5073 9.78809C45.5985 9.47559 45.7303 9.2054 45.9028 8.97754C46.0786 8.74642 46.2951 8.56738 46.5522 8.44043C46.8094 8.31348 47.1073 8.25 47.4458 8.25C47.6802 8.25 47.895 8.28581 48.0903 8.35742C48.2856 8.42578 48.4533 8.53483 48.5933 8.68457C48.7365 8.83105 48.8472 9.02311 48.9253 9.26074C49.0034 9.49512 49.0425 9.77669 49.0425 10.1055V13.6309H47.6362V10.2617C47.6362 10.0208 47.6037 9.83529 47.5386 9.70508C47.4735 9.57487 47.3807 9.48372 47.2603 9.43164C47.1431 9.37956 47.0015 9.35352 46.8354 9.35352C46.6532 9.35352 46.4937 9.39095 46.3569 9.46582C46.2235 9.54069 46.1128 9.64486 46.0249 9.77832C45.937 9.90853 45.8719 10.0615 45.8296 10.2373C45.7873 10.4131 45.7661 10.6019 45.7661 10.8037ZM48.9106 10.6426L48.4077 10.7061C48.4077 10.361 48.45 10.0404 48.5347 9.74414C48.6226 9.44792 48.7511 9.1875 48.9204 8.96289C49.0929 8.73828 49.3062 8.56413 49.5601 8.44043C49.814 8.31348 50.1069 8.25 50.439 8.25C50.6929 8.25 50.924 8.28743 51.1323 8.3623C51.3407 8.43392 51.5181 8.54948 51.6646 8.70898C51.8143 8.86523 51.9282 9.07031 52.0063 9.32422C52.0877 9.57812 52.1284 9.889 52.1284 10.2568V13.6309H50.7173V10.2568C50.7173 10.0127 50.6847 9.82715 50.6196 9.7002C50.5578 9.56999 50.4666 9.48047 50.3462 9.43164C50.229 9.37956 50.089 9.35352 49.9263 9.35352C49.757 9.35352 49.6089 9.3877 49.4819 9.45605C49.355 9.52116 49.2492 9.6123 49.1646 9.72949C49.0799 9.84668 49.0164 9.9834 48.9741 10.1396C48.9318 10.2926 48.9106 10.4603 48.9106 10.6426ZM54.7017 8.34766V13.6309H53.2905V8.34766H54.7017ZM53.2026 6.9707C53.2026 6.76562 53.2743 6.59635 53.4175 6.46289C53.5607 6.32943 53.7528 6.2627 53.9937 6.2627C54.2313 6.2627 54.4217 6.32943 54.5649 6.46289C54.7114 6.59635 54.7847 6.76562 54.7847 6.9707C54.7847 7.17578 54.7114 7.34505 54.5649 7.47852C54.4217 7.61198 54.2313 7.67871 53.9937 7.67871C53.7528 7.67871 53.5607 7.61198 53.4175 7.47852C53.2743 7.34505 53.2026 7.17578 53.2026 6.9707ZM58.9888 12.3662V8.34766H60.395V13.6309H59.0718L58.9888 12.3662ZM59.145 11.2822L59.5601 11.2725C59.5601 11.624 59.5194 11.9512 59.438 12.2539C59.3566 12.5534 59.2345 12.8138 59.0718 13.0352C58.909 13.2533 58.7039 13.4242 58.4565 13.5479C58.2091 13.6683 57.9178 13.7285 57.5825 13.7285C57.3254 13.7285 57.0877 13.6927 56.8696 13.6211C56.6548 13.5462 56.4692 13.4307 56.313 13.2744C56.16 13.1149 56.0396 12.9115 55.9517 12.6641C55.867 12.4134 55.8247 12.1123 55.8247 11.7607V8.34766H57.231V11.7705C57.231 11.9268 57.2489 12.0586 57.2847 12.166C57.3237 12.2734 57.3774 12.3613 57.4458 12.4297C57.5142 12.498 57.5939 12.5469 57.6851 12.5762C57.7795 12.6055 57.8836 12.6201 57.9976 12.6201C58.2873 12.6201 58.5151 12.5615 58.6812 12.4443C58.8504 12.3271 58.9692 12.1676 59.0376 11.9658C59.1092 11.7607 59.145 11.5329 59.145 11.2822ZM62.8755 9.44141V13.6309H61.4644V8.34766H62.7876L62.8755 9.44141ZM62.6802 10.8037H62.2896C62.2896 10.4359 62.3335 10.0973 62.4214 9.78809C62.5125 9.47559 62.6444 9.2054 62.8169 8.97754C62.9927 8.74642 63.2091 8.56738 63.4663 8.44043C63.7235 8.31348 64.0213 8.25 64.3599 8.25C64.5942 8.25 64.8091 8.28581 65.0044 8.35742C65.1997 8.42578 65.3674 8.53483 65.5073 8.68457C65.6506 8.83105 65.7612 9.02311 65.8394 9.26074C65.9175 9.49512 65.9565 9.77669 65.9565 10.1055V13.6309H64.5503V10.2617C64.5503 10.0208 64.5177 9.83529 64.4526 9.70508C64.3875 9.57487 64.2948 9.48372 64.1743 9.43164C64.0571 9.37956 63.9155 9.35352 63.7495 9.35352C63.5672 9.35352 63.4077 9.39095 63.271 9.46582C63.1375 9.54069 63.0269 9.64486 62.939 9.77832C62.8511 9.90853 62.786 10.0615 62.7437 10.2373C62.7013 10.4131 62.6802 10.6019 62.6802 10.8037ZM65.8247 10.6426L65.3218 10.7061C65.3218 10.361 65.3641 10.0404 65.4487 9.74414C65.5366 9.44792 65.6652 9.1875 65.8345 8.96289C66.007 8.73828 66.2202 8.56413 66.4741 8.44043C66.728 8.31348 67.021 8.25 67.353 8.25C67.6069 8.25 67.8381 8.28743 68.0464 8.3623C68.2547 8.43392 68.4321 8.54948 68.5786 8.70898C68.7284 8.86523 68.8423 9.07031 68.9204 9.32422C69.0018 9.57812 69.0425 9.889 69.0425 10.2568V13.6309H67.6313V10.2568C67.6313 10.0127 67.5988 9.82715 67.5337 9.7002C67.4718 9.56999 67.3807 9.48047 67.2603 9.43164C67.1431 9.37956 67.0031 9.35352 66.8403 9.35352C66.6711 9.35352 66.5229 9.3877 66.396 9.45605C66.269 9.52116 66.1632 9.6123 66.0786 9.72949C65.994 9.84668 65.9305 9.9834 65.8882 10.1396C65.8459 10.2926 65.8247 10.4603 65.8247 10.6426Z" fill="#28C1CA"/>
</svg>
