<svg width="21" height="20" viewBox="0 0 21 20" fill="none" xmlns="http://www.w3.org/2000/svg">
<path d="M21 7.69111C20.9998 7.55192 20.9639 7.41511 20.8958 7.29372L17.2483 0.832183C17.1779 0.707603 17.0756 0.603964 16.952 0.531871C16.8284 0.459777 16.6879 0.421817 16.5448 0.421875H4.45523C4.31213 0.421817 4.17159 0.459777 4.04798 0.531871C3.92437 0.603964 3.82213 0.707603 3.75173 0.832183L0.104192 7.29372C0.036097 7.41511 0.000226634 7.55192 0 7.69111C0.00178414 8.25568 0.151967 8.80987 0.435491 9.2981C0.719014 9.78632 1.12591 10.1914 1.61538 10.4728V18.1911C1.61538 18.6195 1.78558 19.0304 2.08852 19.3334C2.39146 19.6363 2.80234 19.8065 3.23077 19.8065H7.98C8.40843 19.8065 8.81931 19.6363 9.12225 19.3334C9.42519 19.0304 9.59538 18.6195 9.59538 18.1911V16.0047C9.58792 15.769 9.66536 15.5385 9.81361 15.3551C9.96186 15.1717 10.1711 15.0477 10.4031 15.0056C10.5293 14.9922 10.6569 15.0055 10.7777 15.0446C10.8984 15.0838 11.0096 15.1478 11.104 15.2326C11.1984 15.3175 11.274 15.4212 11.3258 15.5371C11.3776 15.6529 11.4044 15.7784 11.4046 15.9053V18.1911C11.4046 18.6195 11.5748 19.0304 11.8777 19.3334C12.1807 19.6363 12.5916 19.8065 13.02 19.8065H17.7692C18.1977 19.8065 18.6085 19.6363 18.9115 19.3334C19.2144 19.0304 19.3846 18.6195 19.3846 18.1911V10.4728C19.8741 10.1914 20.281 9.78632 20.5645 9.2981C20.848 8.80987 20.9982 8.25568 21 7.69111ZM19.3733 7.88334C19.3246 8.29246 19.1215 8.66753 18.8054 8.93181C18.4893 9.19609 18.0842 9.32961 17.6729 9.30505C17.2617 9.2805 16.8753 9.09972 16.5929 8.7997C16.3106 8.49969 16.1535 8.10311 16.1538 7.69111C16.1492 7.65342 16.1416 7.61616 16.1312 7.57964C16.1314 7.54341 16.1287 7.50723 16.1232 7.47141L14.5877 2.03726H16.0731L19.3733 7.88334ZM8.09065 2.03726H9.69231V7.69111C9.67547 8.1007 9.50353 8.48858 9.21134 8.77612C8.91916 9.06366 8.52857 9.22936 8.11876 9.23963C7.70894 9.2499 7.31055 9.10398 7.00433 8.83143C6.6981 8.55889 6.50695 8.18012 6.46962 7.77187L8.09065 2.03726ZM11.3077 2.03726H12.9093L14.5304 7.77187C14.493 8.18012 14.3019 8.55889 13.9957 8.83143C13.6894 9.10398 13.2911 9.2499 12.8812 9.23963C12.4714 9.22936 12.0808 9.06366 11.7887 8.77612C11.4965 8.48858 11.3245 8.1007 11.3077 7.69111V2.03726ZM4.92692 2.03726H6.41227L4.87765 7.47141C4.87216 7.50723 4.86946 7.54341 4.86958 7.57964C4.8589 7.61614 4.85107 7.6534 4.84615 7.69111C4.84652 8.10311 4.68944 8.49969 4.40706 8.7997C4.12468 9.09972 3.73833 9.2805 3.32705 9.30505C2.91578 9.32961 2.51066 9.19609 2.19458 8.93181C1.87851 8.66753 1.67535 8.29246 1.62669 7.88334L4.92692 2.03726ZM17.7692 18.1911H13.02V15.9053C13.0196 15.5528 12.9453 15.2044 12.8018 14.8824C12.6583 14.5604 12.4488 14.2722 12.187 14.0362C11.9251 13.8002 11.6167 13.6218 11.2816 13.5125C10.9465 13.4031 10.5922 13.3653 10.2415 13.4015C9.61085 13.4837 9.03224 13.7945 8.61541 14.2749C8.19858 14.7553 7.97249 15.3719 7.98 16.0079V18.1911H3.23077V10.9219C3.68939 10.9221 4.14278 10.8245 4.56064 10.6355C4.9785 10.4464 5.3512 10.1704 5.65385 9.82584C5.95637 10.1718 6.3297 10.4486 6.74855 10.6377C7.1674 10.8268 7.62199 10.9236 8.08153 10.9217C8.54108 10.9198 8.99484 10.8192 9.4121 10.6266C9.82936 10.4341 10.2004 10.1541 10.5 9.80564C10.7996 10.1541 11.1706 10.4341 11.5879 10.6266C12.0052 10.8192 12.4589 10.9198 12.9185 10.9217C13.378 10.9236 13.8326 10.8268 14.2515 10.6377C14.6703 10.4486 15.0436 10.1718 15.3462 9.82584C15.6488 10.1704 16.0215 10.4464 16.4394 10.6355C16.8572 10.8245 17.3106 10.9221 17.7692 10.9219V18.1911Z" fill="#111111"/>
</svg>
