<svg width="16" height="17" viewBox="0 0 16 17" fill="none" xmlns="http://www.w3.org/2000/svg">
<g clip-path="url(#clip0_2835_3968)">
<path d="M8 0.880859C12.2812 0.880859 15.75 4.34961 15.75 8.63086C15.75 12.9121 12.2812 16.3809 8 16.3809C3.71875 16.3809 0.25 12.9121 0.25 8.63086C0.25 4.34961 3.71875 0.880859 8 0.880859ZM11.5594 8.09961L7.325 3.86523C7.03125 3.57148 6.55625 3.57148 6.26562 3.86523L5.73438 4.39648C5.44063 4.69023 5.44063 5.16523 5.73438 5.45586L8.90938 8.63086L5.73438 11.8059C5.44063 12.0996 5.44063 12.5746 5.73438 12.8652L6.26562 13.3965C6.55937 13.6902 7.03437 13.6902 7.325 13.3965L11.5594 9.16211C11.8531 8.86836 11.8531 8.39336 11.5594 8.09961Z" fill="#28C1CA"/>
</g>
<defs>
<clipPath id="clip0_2835_3968">
<rect width="16" height="16" fill="white" transform="translate(0 0.630859)"/>
</clipPath>
</defs>
</svg>
