<svg width="16" height="16" viewBox="0 0 16 16" fill="none" xmlns="http://www.w3.org/2000/svg">
<path d="M2.4007 12.8083H5.79368C5.89899 12.809 6.00339 12.7888 6.10089 12.749C6.19839 12.7091 6.28707 12.6504 6.36184 12.5763L11.8994 7.03068L14.1721 4.80603C14.2471 4.73164 14.3066 4.64313 14.3473 4.54562C14.3879 4.4481 14.4088 4.34351 14.4088 4.23787C14.4088 4.13223 14.3879 4.02763 14.3473 3.93012C14.3066 3.8326 14.2471 3.74409 14.1721 3.6697L10.7791 0.236707C10.7047 0.161703 10.6162 0.10217 10.5187 0.0615434C10.4212 0.0209167 10.3166 0 10.211 0C10.1053 0 10.0007 0.0209167 9.90321 0.0615434C9.80569 0.10217 9.71719 0.161703 9.64279 0.236707L7.38614 2.50136L1.83253 8.04697C1.75836 8.12174 1.69969 8.21042 1.65986 8.30792C1.62004 8.40542 1.59985 8.50982 1.60046 8.61514V12.0081C1.60046 12.2204 1.68477 12.4239 1.83485 12.574C1.98492 12.724 2.18846 12.8083 2.4007 12.8083ZM10.211 1.9332L12.4756 4.19785L11.3393 5.33418L9.07463 3.06953L10.211 1.9332ZM3.20093 8.94323L7.9463 4.19785L10.211 6.46251L5.46558 11.2079H3.20093V8.94323ZM15.2044 14.4088H0.800232C0.587997 14.4088 0.384455 14.4931 0.234382 14.6432C0.0843099 14.7933 0 14.9968 0 15.209C0 15.4213 0.0843099 15.6248 0.234382 15.7749C0.384455 15.925 0.587997 16.0093 0.800232 16.0093H15.2044C15.4166 16.0093 15.6202 15.925 15.7703 15.7749C15.9203 15.6248 16.0046 15.4213 16.0046 15.209C16.0046 14.9968 15.9203 14.7933 15.7703 14.6432C15.6202 14.4931 15.4166 14.4088 15.2044 14.4088Z" fill="#9B9B9B"/>
</svg>
