<svg width="19" height="22" viewBox="0 0 19 22" fill="none" xmlns="http://www.w3.org/2000/svg">
<path d="M16.5698 0.806643H6.5528C6.49577 0.806462 6.43909 0.815413 6.38489 0.833155C6.35422 0.837276 6.32439 0.846224 6.29652 0.859667C6.256 0.875856 6.21745 0.89661 6.18163 0.921527C6.14629 0.944222 6.11367 0.970909 6.08442 1.00106L0.198846 6.73641C0.135531 6.79773 0.085277 6.87123 0.0511061 6.95248C0.0169352 7.03373 -0.000445746 7.12106 8.68609e-06 7.2092V19.1438C0.00117674 19.788 0.257593 20.4055 0.713097 20.861C1.1686 21.3165 1.78606 21.5729 2.43024 21.5741H16.5698C17.2139 21.5729 17.8314 21.3165 18.2869 20.861C18.7424 20.4055 18.9988 19.788 19 19.1438V3.23687C18.9988 2.5927 18.7424 1.97524 18.2869 1.51973C17.8314 1.06423 17.2139 0.807811 16.5698 0.806643ZM17.6744 19.1438C17.6744 19.4368 17.558 19.7178 17.3509 19.925C17.1437 20.1321 16.8627 20.2485 16.5698 20.2485H2.43024C2.13727 20.2485 1.8563 20.1321 1.64913 19.925C1.44197 19.7178 1.32559 19.4368 1.32559 19.1438V7.87199H4.78536C5.42953 7.87082 6.04699 7.6144 6.5025 7.1589C6.958 6.7034 7.21442 6.08594 7.21559 5.44176V2.13222H16.5698C16.8627 2.13222 17.1437 2.24861 17.3509 2.45577C17.558 2.66293 17.6744 2.9439 17.6744 3.23687V19.1438ZM14.3163 6.93525C14.3163 7.11103 14.2465 7.27961 14.1222 7.40391C13.9979 7.52821 13.8293 7.59804 13.6535 7.59804H11.0907C10.9149 7.59804 10.7463 7.52821 10.622 7.40391C10.4977 7.27961 10.4279 7.11103 10.4279 6.93525C10.4279 6.75946 10.4977 6.59088 10.622 6.46658C10.7463 6.34228 10.9149 6.27245 11.0907 6.27245H13.6535C13.8293 6.27245 13.9979 6.34228 14.1222 6.46658C14.2465 6.59088 14.3163 6.75946 14.3163 6.93525ZM14.3163 11.1904C14.3163 11.3661 14.2465 11.5347 14.1222 11.659C13.9979 11.7833 13.8293 11.8531 13.6535 11.8531H5.34873C5.17294 11.8531 5.00436 11.7833 4.88006 11.659C4.75577 11.5347 4.68594 11.3661 4.68594 11.1904C4.68594 11.0146 4.75577 10.846 4.88006 10.7217C5.00436 10.5974 5.17294 10.5276 5.34873 10.5276H13.6535C13.8293 10.5276 13.9979 10.5974 14.1222 10.7217C14.2465 10.846 14.3163 11.0146 14.3163 11.1904ZM14.3163 15.4455C14.3163 15.6213 14.2465 15.7898 14.1222 15.9141C13.9979 16.0384 13.8293 16.1083 13.6535 16.1083H5.34873C5.17294 16.1083 5.00436 16.0384 4.88006 15.9141C4.75577 15.7898 4.68594 15.6213 4.68594 15.4455C4.68594 15.2697 4.75577 15.1011 4.88006 14.9768C5.00436 14.8525 5.17294 14.7827 5.34873 14.7827H13.6535C13.8293 14.7827 13.9979 14.8525 14.1222 14.9768C14.2465 15.1011 14.3163 15.2697 14.3163 15.4455Z" fill="#111111"/>
</svg>
